<svg width="1141" height="904" viewBox="0 0 1141 904" fill="none" xmlns="http://www.w3.org/2000/svg">
<g filter="url(#filter0_f_16785_49777)">
<path d="M692.658 311.883C749.125 250.288 540.028 215.699 438.545 205.89C305.442 185.756 224.775 228.651 202.263 271.922C179.75 315.194 447.005 575.588 759.221 675.077C1071.44 774.567 914.713 578.293 769.39 550.286C624.066 522.28 636.191 373.479 692.658 311.883Z" fill="url(#paint0_linear_16785_49777)" fill-opacity="0.4"/>
<path d="M692.658 311.883C749.125 250.288 540.028 215.699 438.545 205.89C305.442 185.756 224.775 228.651 202.263 271.922C179.75 315.194 447.005 575.588 759.221 675.077C1071.44 774.567 914.713 578.293 769.39 550.286C624.066 522.28 636.191 373.479 692.658 311.883Z" stroke="white"/>
</g>
<defs>
<filter id="filter0_f_16785_49777" x="0.435547" y="0.273438" width="1140.13" height="903.219" filterUnits="userSpaceOnUse" color-interpolation-filters="sRGB">
<feFlood flood-opacity="0" result="BackgroundImageFix"/>
<feBlend mode="normal" in="SourceGraphic" in2="BackgroundImageFix" result="shape"/>
<feGaussianBlur stdDeviation="100" result="effect1_foregroundBlur_16785_49777"/>
</filter>
<linearGradient id="paint0_linear_16785_49777" x1="732.856" y1="542.346" x2="565.351" y2="220.079" gradientUnits="userSpaceOnUse">
<stop stop-color="#FE47A1"/>
<stop offset="0.659984" stop-color="#9672D9"/>
<stop offset="1" stop-color="#7781C4"/>
</linearGradient>
</defs>
</svg>
