<svg width="738" height="771" viewBox="0 0 738 771" fill="none" xmlns="http://www.w3.org/2000/svg">
<g filter="url(#filter0_f_18278_37476)">
<path d="M463.254 457.433C478.869 512.922 427.643 541.287 409.743 560.75C287.486 608.371 372.647 458.468 276.822 421.2C157.041 374.614 216.265 319.332 211.505 262.394C206.744 205.456 295.675 217.258 307.672 240.447C319.669 263.637 344.425 273.989 396.603 217.258C448.781 160.527 554.66 266.328 534.475 319.333C514.289 372.337 447.638 401.944 463.254 457.433Z" fill="url(#paint0_linear_18278_37476)" fill-opacity="0.5"/>
<path d="M463.254 457.433C478.869 512.922 427.643 541.287 409.743 560.75C287.486 608.371 372.647 458.468 276.822 421.2C157.041 374.614 216.265 319.332 211.505 262.394C206.744 205.456 295.675 217.258 307.672 240.447C319.669 263.637 344.425 273.989 396.603 217.258C448.781 160.527 554.66 266.328 534.475 319.333C514.289 372.337 447.638 401.944 463.254 457.433Z" stroke="black"/>
</g>
<defs>
<filter id="filter0_f_18278_37476" x="0.5" y="0.5" width="737" height="770" filterUnits="userSpaceOnUse" color-interpolation-filters="sRGB">
<feFlood flood-opacity="0" result="BackgroundImageFix"/>
<feBlend mode="normal" in="SourceGraphic" in2="BackgroundImageFix" result="shape"/>
<feGaussianBlur stdDeviation="100" result="effect1_foregroundBlur_18278_37476"/>
</filter>
<linearGradient id="paint0_linear_18278_37476" x1="308.783" y1="465.641" x2="472.441" y2="309.244" gradientUnits="userSpaceOnUse">
<stop stop-color="#FE47A1"/>
<stop offset="0.659984" stop-color="#9672D9"/>
<stop offset="1" stop-color="#FA6868"/>
</linearGradient>
</defs>
</svg>
