<svg width="1457" height="1000" viewBox="0 0 1457 1000" fill="none" xmlns="http://www.w3.org/2000/svg">
<g filter="url(#filter0_f_18650_561)">
<path d="M636.067 779.899C770.827 849.919 884.791 714.645 924.928 638.255C1040.11 600.169 1226.87 517.495 1244.28 481.349C1265.99 436.268 1315.82 285.146 767.732 215.49C219.648 145.833 225.341 348.521 203.375 437.307C181.409 526.092 304.264 657.418 410.791 618.762C517.319 580.106 467.617 692.374 636.067 779.899Z" fill="url(#paint0_linear_18650_561)" fill-opacity="0.5"/>
<path d="M636.067 779.899C770.827 849.919 884.791 714.645 924.928 638.255C1040.11 600.169 1226.87 517.495 1244.28 481.349C1265.99 436.268 1315.82 285.146 767.732 215.49C219.648 145.833 225.341 348.521 203.375 437.307C181.409 526.092 304.264 657.418 410.791 618.762C517.319 580.106 467.617 692.374 636.067 779.899Z" stroke="black"/>
</g>
<defs>
<filter id="filter0_f_18650_561" x="0.300049" y="0.685547" width="1456.32" height="999.215" filterUnits="userSpaceOnUse" color-interpolation-filters="sRGB">
<feFlood flood-opacity="0" result="BackgroundImageFix"/>
<feBlend mode="normal" in="SourceGraphic" in2="BackgroundImageFix" result="shape"/>
<feGaussianBlur stdDeviation="100" result="effect1_foregroundBlur_18650_561"/>
</filter>
<linearGradient id="paint0_linear_18650_561" x1="502.976" y1="685.619" x2="766.972" y2="221.428" gradientUnits="userSpaceOnUse">
<stop stop-color="white"/>
<stop offset="0.37" stop-color="#4F8BF8"/>
<stop offset="1" stop-color="#D727C4"/>
</linearGradient>
</defs>
</svg>
