<svg width="1005" height="1365" viewBox="0 0 1005 1365" fill="none" xmlns="http://www.w3.org/2000/svg">
<g style="mix-blend-mode:lighten" opacity="0.3" filter="url(#filter0_f_6_1557)">
<path d="M242.915 491.084C251.266 486.823 233.872 484.585 271.563 454.573C271.28 455.93 356.121 414.811 357.895 416.537C360.114 418.695 360.721 450.728 366.166 451.352C371.612 451.975 390.961 408.391 401.577 398.136C412.193 387.881 412.211 418.733 424.862 399.72C441.456 374.781 512.943 321.986 489.401 348.869C465.859 375.753 381.548 513.41 360.469 551.615C339.391 589.82 332.871 614.754 310.08 629.318C287.289 643.882 287.914 601.797 271.7 623.056C255.485 644.315 238.998 647.342 228.764 634.122C223.098 626.804 125.137 1013.25 45.4734 1016.46C-257.448 1028.65 144.962 787.687 84.7766 471.79C68.7882 387.871 234.563 495.346 242.915 491.084Z" fill="#1E93FF"/>
<path d="M366.765 702.378C437.435 682.578 508.048 575.082 504.955 553.079C490.946 453.412 691.074 227.693 541.664 362.461C509.745 391.252 169.501 621.774 156.37 718.646C197.784 746.203 -129.678 950.415 -18.096 985.148C130.855 1031.51 218.78 924.797 220.277 924.243C260.46 909.374 327.694 713.324 366.765 702.378Z" fill="#A515FD"/>
</g>
<defs>
<filter id="filter0_f_6_1557" x="-198.725" y="190.676" width="926.074" height="956.222" filterUnits="userSpaceOnUse" color-interpolation-filters="sRGB">
<feFlood flood-opacity="0" result="BackgroundImageFix"/>
<feBlend mode="normal" in="SourceGraphic" in2="BackgroundImageFix" result="shape"/>
<feGaussianBlur stdDeviation="65" result="effect1_foregroundBlur_6_1557"/>
</filter>
</defs>
</svg>
