<svg width="882" height="975" viewBox="0 0 882 975" fill="none" xmlns="http://www.w3.org/2000/svg">
<g opacity="0.4" filter="url(#filter0_f_1_1516)">
<path d="M550.558 709.742C544.634 710.879 554.236 715.053 524.847 726.528C525.346 725.776 465.7 736.044 465.089 734.736C464.325 733.101 471.857 714.146 468.832 712.885C465.806 711.623 443.782 734.1 435.061 738.393C426.339 742.685 433.924 724.522 421.859 733.636C406.033 745.589 351.307 764.924 371.667 752.966C392.028 741.009 475.131 673.83 496.84 654.804C518.55 635.777 528.494 622.172 545.383 617.343C562.272 612.514 551.547 637.183 566.245 627.333C580.943 617.482 591.313 618.409 594.032 627.871C595.537 633.109 609.694 449.55 656.985 460.748C836.808 503.329 740.168 693.746 614.985 693.748C592.853 693.749 556.482 708.605 550.558 709.742Z" fill="#1E93FF"/>
<path d="M530.282 565.027C484.156 565.074 426.397 643.59 412.862 630.209C326.604 544.927 76.6903 612.303 316 693C402 721.999 625.585 644.874 657.099 590.01C702.985 536.749 781 426 699 282C659.454 212.553 552.561 387.003 543.985 416.748C537.984 437.566 555.783 565.001 530.282 565.027Z" fill="#A515FD"/>
</g>
<defs>
<filter id="filter0_f_1_1516" x="85.0309" y="135.797" width="800.918" height="750.929" filterUnits="userSpaceOnUse" color-interpolation-filters="sRGB">
<feFlood flood-opacity="0" result="BackgroundImageFix"/>
<feBlend mode="normal" in="SourceGraphic" in2="BackgroundImageFix" result="shape"/>
<feGaussianBlur stdDeviation="65" result="effect1_foregroundBlur_1_1516"/>
</filter>
</defs>
</svg>
