<svg width="1099" height="1478" viewBox="0 0 1099 1478" fill="none" xmlns="http://www.w3.org/2000/svg">
<g opacity="0.7">
<path d="M912.645 740.565L1442.42 211.727C1491.33 163.039 1492.2 84.6401 1444.39 36.6348C1396.59 -11.3652 1318.18 -10.8034 1269.3 37.8968L755.054 551.225L575.815 335.899C532.473 283.829 455.123 276.746 403.061 320.09C350.996 363.44 343.912 440.777 387.252 492.842L580.71 725.268L38.2576 1266.75C-10.6371 1315.46 -11.5211 1393.82 36.2808 1441.83C84.097 1489.84 162.482 1489.28 211.37 1440.59L738.31 914.603L908.633 1119.22C951.956 1171.28 1029.32 1178.33 1081.36 1135.01C1133.44 1091.68 1140.51 1014.32 1097.18 962.268L912.645 740.565Z" stroke="#D478FF" stroke-width="0.2" stroke-miterlimit="10"/>
<path opacity="0.9727" d="M914.138 746.355L1435.82 233.245C1483.98 186.007 1485.4 109.377 1439.01 62.1066C1392.63 14.8412 1315.98 14.8178 1267.85 62.0688L761.457 560.137L587.812 348.358C545.822 297.144 470.26 289.666 419.055 331.656C367.849 373.657 360.364 449.203 402.351 500.413L589.774 729.009L55.6159 1254.39C7.46651 1301.65 6.03701 1378.24 52.4184 1425.52C98.8106 1472.79 175.44 1472.81 223.579 1425.57L742.466 915.217L907.475 1116.46C949.447 1167.66 1025.02 1175.11 1076.21 1133.14C1127.42 1091.16 1134.9 1015.6 1092.92 964.4L914.138 746.355Z" stroke="#D478FF" stroke-width="0.2" stroke-miterlimit="10"/>
<path opacity="0.9455" d="M915.632 752.144L1429.22 254.756C1476.63 208.962 1478.6 134.107 1433.63 87.5729C1388.68 41.0385 1313.78 40.4426 1266.4 86.2424L767.864 569.045L599.804 360.815C559.164 310.458 485.392 302.578 435.048 343.22C384.695 383.867 376.817 457.621 417.451 507.974L598.845 732.741L72.97 1242.02C25.5714 1287.83 23.5945 1362.66 68.5518 1409.2C113.522 1455.73 188.394 1456.34 235.782 1410.54L746.62 915.831L906.317 1113.7C946.939 1164.05 1020.72 1171.9 1071.05 1131.27C1121.42 1090.65 1129.28 1016.87 1088.65 966.537L915.632 752.144Z" stroke="#D478FF" stroke-width="0.2" stroke-miterlimit="10"/>
<path opacity="0.9182" d="M917.124 757.935L1422.62 276.267C1469.28 231.929 1471.79 158.837 1428.25 113.036C1384.72 67.2394 1311.58 66.0583 1264.95 110.411L774.272 577.957L611.801 373.272C572.513 323.776 500.532 315.497 451.041 354.783C401.549 394.08 393.267 466.047 432.553 515.539L607.912 736.475L90.3332 1229.66C43.6799 1274.02 41.1576 1347.08 84.6926 1392.88C128.24 1438.69 201.35 1439.86 247.996 1395.52L750.779 916.446L905.174 1110.94C944.444 1160.43 1016.43 1168.69 1065.91 1129.42C1115.41 1090.14 1123.68 1018.16 1084.4 968.675L917.124 757.935Z" stroke="#D478FF" stroke-width="0.2" stroke-miterlimit="10"/>
<path opacity="0.8909" d="M918.618 763.725L1416.02 297.783C1461.94 254.893 1464.99 183.569 1422.87 138.504C1380.77 93.4422 1309.39 91.6832 1263.5 134.588L780.679 586.869L623.795 385.736C585.856 337.098 515.67 328.417 467.04 366.356C418.404 404.298 409.723 474.475 447.657 523.108L616.986 740.216L107.691 1217.3C61.7868 1260.21 58.7154 1331.5 100.83 1376.57C142.952 1421.64 214.308 1423.39 260.201 1380.5L754.939 917.071L904.021 1108.2C941.939 1156.83 1012.14 1165.48 1060.75 1127.56C1109.4 1089.64 1118.07 1019.45 1080.14 970.816L918.618 763.725Z" stroke="#D478FF" stroke-width="0.2" stroke-miterlimit="10"/>
<path opacity="0.8636" d="M920.113 769.519L1409.42 319.298C1454.58 277.855 1458.19 208.305 1417.49 163.974C1376.8 119.643 1307.19 117.308 1262.05 158.76L787.089 595.775L635.79 398.189C599.203 350.409 530.804 341.328 483.031 377.917C435.253 414.509 426.174 482.893 462.759 530.67L626.059 743.948L125.049 1204.93C79.8939 1246.4 76.2751 1315.91 116.967 1360.25C157.668 1404.59 227.264 1406.92 272.412 1365.48L759.094 917.678L902.862 1105.43C939.433 1153.21 1007.84 1162.26 1055.6 1125.69C1103.38 1089.12 1112.46 1020.72 1075.88 972.948L920.113 769.519Z" stroke="#D478FF" stroke-width="0.2" stroke-miterlimit="10"/>
<path opacity="0.8364" d="M921.608 775.309L1402.82 340.813C1447.24 300.819 1451.39 233.036 1412.11 189.44C1372.85 145.846 1304.99 142.927 1260.6 182.934L793.487 604.685L647.781 410.644C612.545 363.722 545.938 354.243 499.026 389.48C452.106 424.725 442.624 491.315 477.857 538.235L635.126 747.679L142.407 1192.57C97.9985 1232.59 93.836 1300.33 133.104 1343.94C172.383 1387.53 240.218 1390.45 284.617 1350.45L763.25 918.299L901.715 1102.68C936.932 1149.6 1003.55 1159.05 1050.45 1123.83C1097.37 1088.6 1106.85 1022 1071.62 975.086L921.608 775.309Z" stroke="#D478FF" stroke-width="0.2" stroke-miterlimit="10"/>
<path opacity="0.8091" d="M923.101 781.101L1396.22 362.325C1439.89 323.781 1444.58 257.77 1406.74 214.903C1368.89 172.045 1302.8 168.549 1259.15 207.106L799.896 613.597L659.779 423.104C625.898 377.04 561.079 367.161 515.024 401.046C468.963 434.935 459.082 499.738 492.962 545.802L644.197 751.418L159.765 1180.2C116.106 1218.77 111.398 1284.75 149.244 1327.62C187.1 1370.48 253.176 1373.98 296.828 1335.43L767.412 918.911L900.562 1099.93C934.429 1145.99 999.248 1155.84 1045.3 1121.97C1091.37 1088.1 1101.24 1023.28 1067.36 977.225L923.101 781.101Z" stroke="#D478FF" stroke-width="0.2" stroke-miterlimit="10"/>
<path opacity="0.7818" d="M924.595 786.889L1389.61 383.842C1432.54 346.741 1437.78 282.5 1401.36 240.373C1364.93 198.248 1300.59 194.17 1257.7 231.281L806.31 622.509L671.771 435.568C639.238 390.361 576.214 380.079 531.014 412.615C485.808 445.155 475.531 508.165 508.062 553.371L653.267 755.156L177.12 1167.84C134.206 1204.96 128.953 1269.17 165.378 1311.31C201.814 1353.44 266.129 1357.51 309.032 1320.41L771.564 919.536L899.409 1097.18C931.93 1142.38 994.959 1152.63 1040.15 1120.12C1085.36 1087.59 1095.63 1024.57 1063.11 979.37L924.595 786.889Z" stroke="#D478FF" stroke-width="0.2" stroke-miterlimit="10"/>
<path opacity="0.7545" d="M926.092 792.681L1383.02 405.353C1425.19 369.703 1430.98 307.232 1395.97 265.836C1360.98 224.443 1298.4 219.789 1256.25 255.451L812.716 631.417L683.766 448.022C652.585 403.669 591.351 392.997 547.013 424.177C502.664 455.365 491.988 516.587 523.163 560.931L662.34 758.893L194.486 1155.48C152.317 1191.15 146.518 1253.59 181.518 1294.99C216.531 1336.38 279.087 1341.04 321.243 1305.39L775.724 920.143L898.263 1094.42C929.426 1138.76 990.666 1149.41 1034.99 1118.25C1079.35 1087.08 1090.02 1025.84 1058.85 981.499L926.092 792.681Z" stroke="#D478FF" stroke-width="0.2" stroke-miterlimit="10"/>
<path opacity="0.7273" d="M927.581 798.469L1376.42 426.867C1417.84 392.667 1424.18 331.964 1390.6 291.304C1357.03 250.646 1296.21 245.412 1254.8 279.625L819.121 640.331L695.757 460.48C665.928 416.989 606.485 405.913 563 435.743C519.512 465.579 508.434 525.008 538.263 568.494L671.407 762.627L211.84 1143.11C170.42 1177.33 164.072 1238.01 197.653 1278.67C231.246 1319.33 292.041 1324.56 333.448 1290.36L779.885 920.762L897.106 1091.66C926.924 1135.15 986.372 1146.2 1029.85 1116.39C1073.33 1086.57 1084.41 1027.12 1054.59 983.64L927.581 798.469Z" stroke="#D478FF" stroke-width="0.2" stroke-miterlimit="10"/>
<path opacity="0.7" d="M929.08 804.263L1369.82 448.385C1410.5 415.631 1417.38 356.699 1385.22 316.772C1353.06 276.847 1294.01 271.035 1253.35 303.795L825.524 649.241L707.754 472.937C679.277 430.304 621.622 418.827 578.996 447.31C536.367 475.794 524.887 533.43 553.368 576.061L680.48 766.361L229.2 1130.75C188.531 1163.52 181.636 1222.42 213.793 1262.36C245.962 1302.29 305 1308.09 345.66 1275.34L784.041 921.383L895.953 1088.91C924.421 1131.53 982.078 1142.99 1024.7 1114.52C1067.33 1086.06 1078.8 1028.41 1050.32 985.779L929.08 804.263Z" stroke="#D478FF" stroke-width="0.2" stroke-miterlimit="10"/>
<path opacity="0.6727" d="M930.574 810.051L1363.22 469.898C1403.15 438.593 1410.59 381.435 1379.84 342.24C1349.1 303.048 1291.81 296.658 1251.9 327.972L831.935 658.151L719.751 485.399C692.625 443.623 636.763 431.75 594.989 458.88C553.22 486.01 541.344 541.865 568.471 583.633L689.552 770.102L246.559 1118.39C206.639 1149.71 199.197 1206.85 229.931 1246.04C260.68 1285.24 317.96 1291.62 357.871 1260.32L788.198 921.999L894.806 1086.15C921.918 1127.93 977.784 1139.78 1019.55 1112.66C1061.32 1085.55 1073.19 1029.68 1046.07 987.914L930.574 810.051Z" stroke="#D478FF" stroke-width="0.2" stroke-miterlimit="10"/>
<path opacity="0.6455" d="M932.063 815.839L1356.61 491.413C1395.8 461.555 1403.78 406.163 1374.46 367.705C1345.14 329.249 1289.61 322.278 1250.45 352.144L838.337 667.063L731.743 497.862C705.967 456.942 651.896 444.666 610.986 470.449C570.071 496.225 557.792 550.29 583.57 591.199L698.622 773.836L263.92 1106.03C224.744 1135.89 216.755 1191.26 246.071 1229.73C275.396 1268.19 330.914 1275.15 370.081 1245.29L792.353 922.614L893.653 1083.4C919.413 1124.31 973.491 1136.56 1014.39 1110.79C1055.31 1085.03 1067.59 1030.96 1041.81 990.051L932.063 815.839Z" stroke="#D478FF" stroke-width="0.2" stroke-miterlimit="10"/>
<path opacity="0.6182" d="M933.557 821.635L1350.01 512.925C1388.44 484.515 1396.97 430.895 1369.07 393.169C1341.18 355.45 1287.41 347.899 1249 376.314L844.744 675.97L743.736 510.313C719.312 470.254 667.034 457.576 626.981 482.002C586.923 506.431 574.248 558.705 598.668 598.758L707.69 777.569L281.276 1093.66C242.848 1122.08 234.313 1175.68 262.206 1213.41C290.11 1251.14 343.87 1258.68 382.283 1230.27L796.51 923.228L892.494 1080.64C916.911 1120.7 969.194 1133.35 1009.24 1108.94C1049.29 1084.52 1061.97 1032.24 1037.55 992.19L933.557 821.635Z" stroke="#D478FF" stroke-width="0.2" stroke-miterlimit="10"/>
<path opacity="0.5909" d="M935.053 827.427L1343.42 534.438C1381.1 507.481 1390.17 455.632 1363.7 418.638C1337.23 381.651 1285.22 373.52 1247.55 400.488L851.15 684.88L755.728 522.773C732.656 483.572 682.168 470.494 642.977 493.573C603.774 516.65 590.701 567.128 613.771 606.327L716.762 781.303L298.631 1081.3C260.949 1108.27 251.873 1160.1 278.341 1197.09C304.824 1234.09 356.821 1242.21 394.492 1215.25L800.67 923.84L891.345 1077.89C914.411 1117.08 964.899 1130.14 1004.09 1107.07C1043.29 1084 1056.36 1033.52 1033.29 994.325L935.053 827.427Z" stroke="#D478FF" stroke-width="0.2" stroke-miterlimit="10"/>
<path opacity="0.5636" d="M936.547 833.211L1336.82 555.953C1373.75 530.445 1383.37 480.36 1358.32 444.104C1333.28 407.852 1283.02 399.143 1246.1 424.662L857.56 693.79L767.729 535.234C746.003 496.89 697.309 483.415 658.973 505.141C620.632 526.862 607.156 575.555 628.88 613.893L725.837 785.042L315.995 1068.94C279.064 1094.46 269.436 1144.52 294.484 1180.78C319.54 1217.04 369.78 1225.74 406.704 1200.23L804.825 924.462L890.194 1075.13C911.9 1113.47 960.602 1126.92 998.933 1105.21C1037.28 1083.49 1050.75 1034.8 1029.03 996.464L936.547 833.211Z" stroke="#D478FF" stroke-width="0.2" stroke-miterlimit="10"/>
<path opacity="0.5364" d="M938.036 839.005L1330.21 577.464C1366.4 553.403 1376.57 505.092 1352.94 469.567C1329.32 434.051 1280.82 424.761 1244.65 448.832L863.965 702.7L779.72 547.687C759.345 510.205 712.445 496.329 674.967 516.701C637.485 537.079 623.609 583.976 643.975 621.452L734.903 788.776L333.35 1056.57C297.164 1080.64 286.992 1128.93 310.617 1164.46C334.252 1199.98 382.736 1209.26 418.908 1185.2L808.983 925.081L889.043 1072.38C909.401 1109.85 956.314 1123.71 993.785 1103.35C1031.27 1082.99 1045.14 1036.08 1024.77 998.608L938.036 839.005Z" stroke="#D478FF" stroke-width="0.2" stroke-miterlimit="10"/>
<path opacity="0.5091" d="M939.532 844.791L1323.62 598.978C1359.06 576.365 1369.77 529.824 1347.56 495.035C1325.36 460.254 1278.62 450.384 1243.2 473.007L870.373 711.61L791.717 560.148C772.698 523.521 727.584 509.244 690.963 528.267C654.338 547.291 640.062 592.396 659.082 629.019L743.977 792.51L350.714 1044.21C315.274 1066.83 304.558 1113.35 326.76 1148.14C348.973 1182.93 395.693 1192.79 431.121 1170.18L813.146 925.69L887.89 1069.61C906.9 1106.24 952.023 1120.49 988.632 1101.48C1025.26 1082.47 1039.53 1037.35 1020.52 1000.73L939.532 844.791Z" stroke="#D478FF" stroke-width="0.2" stroke-miterlimit="10"/>
<path opacity="0.4818" d="M941.026 850.581L1317.01 620.493C1351.71 599.327 1362.97 554.556 1342.18 520.5C1321.4 486.453 1276.42 476.005 1241.75 497.179L876.781 720.52L803.709 572.603C786.039 536.834 742.718 522.158 706.957 539.832C671.187 557.506 656.51 600.822 674.183 636.588L753.049 796.244L368.071 1031.84C333.38 1053.02 322.117 1097.77 342.895 1131.83C363.688 1165.89 408.65 1176.32 443.326 1155.16L817.301 926.309L886.739 1066.86C904.396 1102.63 947.729 1117.28 983.477 1099.62C1019.25 1081.96 1033.92 1038.63 1016.25 1002.88L941.026 850.581Z" stroke="#D478FF" stroke-width="0.2" stroke-miterlimit="10"/>
<path opacity="0.4545" d="M942.519 856.375L1310.41 642.007C1344.36 622.297 1356.17 579.293 1336.8 545.966C1317.45 512.655 1274.22 501.626 1240.3 521.348L883.184 729.428L815.705 585.061C799.387 550.146 757.852 535.072 722.946 551.398C688.037 567.722 672.966 609.246 689.284 644.152L762.115 799.983L385.429 1019.48C351.483 1039.21 339.676 1082.19 359.032 1115.51C378.402 1148.83 421.604 1159.85 455.536 1140.13L821.458 926.926L885.585 1064.11C901.895 1099.02 943.433 1114.07 978.332 1097.76C1013.24 1081.45 1028.31 1039.92 1012 1005.01L942.519 856.375Z" stroke="#D478FF" stroke-width="0.2" stroke-miterlimit="10"/>
<path opacity="0.4273" d="M944.013 862.165L1303.82 663.522C1337.01 645.255 1349.37 604.024 1331.43 571.432C1313.49 538.853 1272.03 527.249 1238.85 545.527L889.598 738.344L827.703 597.522C812.736 563.471 772.995 547.995 738.948 562.961C704.895 577.937 689.421 617.67 704.386 651.718L771.187 803.721L402.788 1007.12C369.594 1025.39 357.24 1066.61 375.172 1099.2C393.122 1131.79 434.566 1143.39 467.746 1125.12L825.613 927.547L884.44 1061.36C899.392 1095.41 939.139 1110.86 973.181 1095.9C1007.23 1080.94 1022.7 1041.2 1007.74 1007.16L944.013 862.165Z" stroke="#D478FF" stroke-width="0.2" stroke-miterlimit="10"/>
<path opacity="0.4" d="M945.506 867.962L1297.21 685.036C1329.66 668.219 1342.57 628.756 1326.05 596.908C1309.54 565.059 1269.83 552.87 1237.4 569.702L896.003 747.252L839.7 609.98C826.083 576.787 788.133 560.911 754.943 574.532C721.751 588.156 705.879 626.099 719.495 659.285L780.267 807.458L420.144 994.75C387.7 1011.58 374.796 1051.02 391.308 1082.88C407.833 1114.73 447.517 1126.91 479.953 1110.09L829.77 928.158L883.281 1058.59C896.889 1091.78 934.844 1107.64 968.029 1094.04C1001.22 1080.42 1017.09 1042.47 1003.48 1009.29L945.506 867.962Z" stroke="#D478FF" stroke-width="0.2" stroke-miterlimit="10"/>
<path opacity="0.3727" d="M947.002 873.749L1290.61 706.553C1322.31 691.183 1335.76 653.488 1320.66 622.369C1305.57 591.26 1267.64 578.495 1235.95 593.87L902.408 756.168L851.688 622.446C839.422 590.109 803.265 573.834 770.934 586.1C738.597 598.37 722.322 634.519 734.586 666.854L789.332 811.196L437.505 982.389C405.804 997.768 392.357 1035.45 407.448 1066.57C422.55 1097.69 460.475 1110.44 492.159 1095.07L833.927 928.774L882.131 1055.84C894.384 1088.17 930.552 1104.43 962.876 1092.17C995.216 1079.92 1011.49 1043.75 999.222 1011.43L947.002 873.749Z" stroke="#D478FF" stroke-width="0.2" stroke-miterlimit="10"/>
<path opacity="0.3455" d="M948.495 879.542L1284.01 728.066C1314.96 714.145 1328.96 678.22 1315.28 647.835C1301.62 617.461 1265.44 604.113 1234.49 618.043L908.809 765.076L863.679 634.899C852.764 603.427 818.405 586.747 786.92 597.662C755.451 608.582 738.776 642.944 749.688 674.418L798.399 814.928L454.862 970.024C423.909 983.954 409.913 1019.87 423.58 1050.25C437.259 1080.64 473.427 1093.97 504.365 1080.05L838.083 929.397L880.972 1053.09C891.875 1084.57 926.244 1101.22 957.719 1090.31C989.196 1079.41 1005.87 1045.04 994.959 1013.57L948.495 879.542Z" stroke="#D478FF" stroke-width="0.2" stroke-miterlimit="10"/>
<path opacity="0.3182" d="M949.99 885.33L1277.41 749.58C1307.61 737.109 1322.16 702.955 1309.9 673.303C1297.66 643.656 1263.24 629.738 1233.04 642.22L915.214 773.986L875.672 647.363C866.112 616.742 833.534 599.668 802.919 609.228C772.3 618.793 755.227 651.369 764.785 681.985L807.47 818.668L472.22 957.661C442.013 970.144 427.471 1004.28 439.721 1033.94C451.978 1063.58 486.385 1077.5 516.576 1065.02L842.241 930.012L879.824 1050.34C889.373 1080.95 921.962 1098.01 952.568 1088.46C983.191 1078.9 1000.26 1046.32 990.7 1015.71L949.99 885.33Z" stroke="#D478FF" stroke-width="0.2" stroke-miterlimit="10"/>
<path opacity="0.2909" d="M951.485 891.122L1270.81 771.094C1300.26 760.074 1315.36 727.687 1304.52 698.77C1293.7 669.863 1261.04 655.361 1231.59 666.392L921.622 782.898L887.665 659.818C879.454 630.058 848.669 612.584 818.909 620.797C789.15 629.012 771.674 659.793 779.893 689.55L816.538 822.405L489.576 945.299C460.12 956.337 445.031 988.703 455.857 1017.62C466.693 1046.54 499.338 1061.03 528.783 1050L846.401 930.624L878.674 1047.58C886.873 1077.34 917.665 1094.79 947.42 1086.59C977.186 1078.38 994.653 1047.59 986.443 1017.84L951.485 891.122Z" stroke="#D478FF" stroke-width="0.2" stroke-miterlimit="10"/>
<path opacity="0.2636" d="M952.98 896.912L1264.21 792.606C1292.92 783.033 1308.56 752.419 1299.15 724.234C1289.74 696.062 1258.84 680.982 1230.14 690.562L928.03 791.804L899.669 672.272C892.806 643.368 863.814 625.492 834.913 632.356C806.008 639.22 788.134 668.21 794.995 697.115L825.61 826.138L506.936 932.927C478.227 942.516 462.594 973.112 471.998 1001.3C481.41 1029.48 512.299 1044.55 540.994 1034.97L850.56 931.24L877.524 1044.82C884.375 1073.72 913.377 1091.58 942.275 1084.72C971.182 1077.87 989.047 1048.87 982.186 1019.97L952.98 896.912Z" stroke="#D478FF" stroke-width="0.2" stroke-miterlimit="10"/>
<path opacity="0.2364" d="M954.47 902.704L1257.62 814.12C1285.57 805.993 1301.76 777.153 1293.77 749.706C1285.79 722.263 1256.65 706.605 1228.7 714.735L934.441 800.716L911.662 684.736C906.155 656.686 878.946 638.412 850.909 643.923C822.86 649.436 804.587 676.632 810.098 704.678L834.682 829.868L524.294 920.569C496.335 928.705 480.155 957.529 488.134 984.981C496.128 1012.43 525.254 1028.08 553.2 1019.95L854.716 931.854L876.366 1042.06C881.864 1070.1 909.077 1088.37 937.114 1082.86C965.164 1077.36 983.435 1050.15 977.924 1022.11L954.47 902.704Z" stroke="#D478FF" stroke-width="0.2" stroke-miterlimit="10"/>
<path opacity="0.2091" d="M955.963 908.492L1251.01 835.635C1278.21 828.962 1294.95 801.885 1288.39 775.171C1281.83 748.464 1254.45 732.224 1227.24 738.909L940.847 809.626L923.655 697.189C919.496 670.003 894.087 651.326 866.9 655.483C839.709 659.647 821.041 685.056 825.199 712.242L843.754 833.602L541.652 908.206C514.439 914.887 497.714 941.954 504.267 968.672C510.835 995.384 538.208 1011.61 565.405 1004.93L858.87 932.474L875.216 1039.31C879.364 1066.5 904.782 1085.16 931.966 1081C959.155 1076.85 977.821 1051.44 973.664 1024.25L955.963 908.492Z" stroke="#D478FF" stroke-width="0.2" stroke-miterlimit="10"/>
<path opacity="0.1818" d="M957.458 914.286L1244.41 857.151C1270.87 851.926 1288.16 826.62 1283.01 800.635C1277.87 774.666 1252.25 757.847 1225.8 763.083L947.253 818.536L935.645 709.651C932.838 683.324 909.221 664.247 882.89 667.058C856.565 669.866 837.486 693.487 840.3 719.809L852.824 837.341L559.012 895.839C532.55 901.076 515.276 926.368 520.409 952.353C525.556 978.334 551.166 995.139 577.618 989.905L863.028 933.087L874.064 1036.55C876.859 1062.88 900.492 1081.94 926.81 1079.13C953.143 1076.33 972.214 1052.7 969.404 1026.38L957.458 914.286Z" stroke="#D478FF" stroke-width="0.2" stroke-miterlimit="10"/>
<path opacity="0.1545" d="M958.953 920.076L1237.81 878.665C1263.52 874.884 1281.35 851.352 1277.63 826.105C1273.91 800.869 1250.05 783.476 1224.35 787.264L953.661 827.45L947.644 722.111C946.186 696.643 924.362 677.165 898.888 678.623C873.413 680.083 853.944 701.909 855.397 727.379L861.891 841.082L576.366 883.483C550.652 887.269 532.831 910.793 536.544 936.043C540.267 961.286 564.12 978.669 589.822 974.887L867.184 933.707L872.911 1033.8C874.355 1059.27 896.197 1078.73 921.658 1077.27C947.135 1075.83 966.601 1053.99 965.146 1028.53L958.953 920.076Z" stroke="#D478FF" stroke-width="0.2" stroke-miterlimit="10"/>
<path opacity="0.1273" d="M960.446 925.869L1231.21 900.178C1256.17 897.85 1274.55 876.082 1272.25 851.57C1269.96 827.065 1247.86 809.09 1222.9 811.427L960.07 836.358L959.642 734.57C959.535 709.957 939.503 690.085 914.888 690.187C890.273 690.297 870.402 710.33 870.51 734.941L870.971 844.813L593.738 871.115C568.768 873.455 550.401 895.207 552.691 919.725C554.994 944.239 577.088 962.199 602.041 959.864L871.351 934.324L871.765 1031.05C871.86 1055.66 891.908 1075.52 916.517 1075.41C941.13 1075.32 960.999 1055.28 960.893 1030.67L960.446 925.869Z" stroke="#D478FF" stroke-width="0.2" stroke-miterlimit="10"/>
<path opacity="0.1" d="M961.935 931.656L1224.6 921.694C1248.82 920.814 1267.75 900.815 1266.87 877.038C1266 853.271 1245.66 834.714 1221.45 835.602L966.476 845.27L971.634 747.027C972.883 723.274 954.635 702.995 930.877 701.755C907.124 700.514 886.852 718.759 885.606 742.508L880.036 848.554L611.088 858.753C586.866 859.641 567.956 879.628 568.826 903.408C569.701 927.187 590.036 945.731 614.244 944.842L875.502 934.94L870.604 1028.29C869.351 1052.05 887.61 1072.31 911.355 1073.56C935.111 1074.81 955.385 1056.56 956.628 1032.81L961.935 931.656Z" stroke="#D478FF" stroke-width="0.2" stroke-miterlimit="10"/>
</g>
</svg>
