<svg width="1310" height="1506" viewBox="0 0 1310 1506" fill="none" xmlns="http://www.w3.org/2000/svg">
<g opacity="0.75">
<path d="M936.073 754.353L1479.47 215.656C1529.63 166.06 1530.52 86.1996 1481.48 37.2993C1432.46 -11.5954 1352.03 -11.0232 1301.89 38.5849L774.432 561.482L590.587 342.143C546.131 289.101 466.793 281.887 413.394 326.039C359.991 370.197 352.724 448.975 397.178 502.011L595.608 738.77L39.2151 1290.35C-10.9362 1339.97 -11.8429 1419.79 37.1874 1468.7C86.2325 1517.59 166.632 1517.02 216.776 1467.43L757.258 931.634L931.958 1140.06C976.394 1193.1 1055.74 1200.28 1109.13 1156.15C1162.54 1112.01 1169.8 1033.21 1125.35 980.188L936.073 754.353Z" stroke="#804DBD" stroke-width="0.2" stroke-miterlimit="10"/>
<path opacity="0.9727" d="M937.606 760.249L1472.7 237.573C1522.09 189.454 1523.55 111.396 1475.96 63.2444C1428.4 15.0979 1349.77 15.074 1300.41 63.2059L781.001 570.559L602.894 354.832C559.824 302.664 482.321 295.046 429.8 337.819C377.278 380.603 369.601 457.557 412.667 509.721L604.907 742.579L57.021 1277.75C7.63421 1325.9 6.16798 1403.91 53.7413 1452.07C101.326 1500.23 179.925 1500.24 229.3 1452.13L761.523 932.258L930.772 1137.25C973.823 1189.41 1051.33 1197 1103.84 1154.24C1156.37 1111.49 1164.04 1034.51 1120.98 982.358L937.606 760.249Z" stroke="#804DBD" stroke-width="0.2" stroke-miterlimit="10"/>
<path opacity="0.9455" d="M939.139 766.147L1465.92 259.487C1514.55 212.839 1516.57 136.589 1470.45 89.1872C1424.34 41.7852 1347.52 41.1782 1298.92 87.8319L787.573 579.635L615.194 367.523C573.51 316.227 497.842 308.2 446.204 349.6C394.557 391.005 386.476 466.134 428.155 517.426L614.21 746.382L74.821 1265.16C26.2044 1311.82 24.1767 1388.04 70.2894 1435.45C116.415 1482.85 193.211 1483.47 241.817 1436.82L765.783 932.885L929.584 1134.44C971.25 1185.73 1046.93 1193.73 1098.55 1152.35C1150.21 1110.96 1158.28 1035.81 1116.61 984.536L939.139 766.147Z" stroke="#804DBD" stroke-width="0.2" stroke-miterlimit="10"/>
<path opacity="0.9182" d="M940.666 772.045L1459.15 281.397C1507.02 236.233 1509.59 161.779 1464.93 115.123C1420.28 68.4731 1345.26 67.27 1297.43 112.449L794.144 588.711L627.497 380.21C587.2 329.792 513.369 321.359 462.606 361.378C411.842 401.407 403.347 474.715 443.643 525.13L623.508 750.184L92.6287 1252.56C44.7765 1297.75 42.1894 1372.17 86.8431 1418.83C131.51 1465.49 206.499 1466.68 254.343 1421.52L770.047 933.511L928.41 1131.63C968.689 1182.04 1042.53 1190.46 1093.28 1150.45C1144.05 1110.44 1152.54 1037.12 1112.24 986.713L940.666 772.045Z" stroke="#804DBD" stroke-width="0.2" stroke-miterlimit="10"/>
<path opacity="0.8909" d="M942.201 777.945L1452.39 303.317C1499.48 259.627 1502.62 186.973 1459.42 141.068C1416.22 95.166 1343.02 93.3742 1295.95 137.079L800.716 597.791L639.801 392.908C600.887 343.364 528.897 334.521 479.017 373.168C429.132 411.816 420.227 483.302 459.136 532.842L632.817 753.997L110.434 1239.97C63.3495 1283.69 60.1992 1356.3 103.396 1402.22C146.6 1448.12 219.79 1449.91 266.863 1406.22L774.315 934.149L927.228 1128.84C966.12 1178.38 1038.12 1187.19 1087.99 1148.56C1137.89 1109.93 1146.78 1038.43 1107.87 988.896L942.201 777.945Z" stroke="#804DBD" stroke-width="0.2" stroke-miterlimit="10"/>
<path opacity="0.8636" d="M943.733 783.847L1445.62 325.233C1491.94 283.017 1495.64 212.17 1453.9 167.013C1412.16 121.856 1340.76 119.477 1294.46 161.702L807.29 606.864L652.103 405.594C614.576 356.923 544.42 347.673 495.419 384.944C446.412 422.219 437.1 491.878 474.626 540.545L642.122 757.799L128.237 1227.38C81.9211 1269.61 78.2093 1340.43 119.947 1385.59C161.694 1430.75 233.078 1433.13 279.387 1390.92L778.576 934.767L926.039 1126.02C963.55 1174.69 1033.71 1183.91 1082.7 1146.66C1131.71 1109.4 1141.02 1039.73 1103.5 991.067L943.733 783.847Z" stroke="#804DBD" stroke-width="0.2" stroke-miterlimit="10"/>
<path opacity="0.8364" d="M945.266 789.746L1438.84 347.149C1484.41 306.41 1488.66 237.364 1448.38 192.955C1408.1 148.548 1338.5 145.575 1292.97 186.327L813.853 615.941L664.402 418.283C628.261 370.486 559.942 360.831 511.824 396.725C463.699 432.626 453.972 500.458 490.111 548.252L651.422 761.6L146.04 1214.78C100.491 1255.55 96.2214 1324.55 136.499 1368.97C176.787 1413.38 246.365 1416.35 291.905 1375.61L782.838 935.401L924.862 1123.22C960.984 1171.01 1029.31 1180.64 1077.42 1144.76C1125.55 1108.88 1135.26 1041.03 1099.13 993.247L945.266 789.746Z" stroke="#804DBD" stroke-width="0.2" stroke-miterlimit="10"/>
<path opacity="0.8091" d="M946.798 795.644L1432.08 369.062C1476.87 329.799 1481.68 262.558 1442.86 218.892C1404.04 175.235 1336.25 171.673 1291.48 210.949L820.426 625.018L676.709 430.974C641.957 384.051 575.472 373.988 528.233 408.505C480.989 443.025 470.854 509.036 505.604 555.959L660.726 765.408L163.845 1202.19C119.064 1241.47 114.235 1308.68 153.053 1352.35C191.883 1396.01 259.657 1399.57 304.431 1360.31L787.107 936.024L923.68 1120.41C958.417 1167.33 1024.9 1177.36 1072.14 1142.87C1119.39 1108.36 1129.51 1042.34 1094.77 995.425L946.798 795.644Z" stroke="#804DBD" stroke-width="0.2" stroke-miterlimit="10"/>
<path opacity="0.7818" d="M948.331 801.54L1425.3 390.979C1469.33 353.187 1474.71 287.748 1437.34 244.836C1399.99 201.925 1333.99 197.771 1290 235.574L827.006 634.096L689.01 443.67C655.641 397.62 590.997 387.146 544.635 420.289C498.268 453.436 487.727 517.62 521.094 563.669L670.03 769.215L181.647 1189.59C137.631 1227.41 132.242 1292.81 169.603 1335.74C206.976 1378.65 272.944 1382.8 316.949 1345.01L791.368 936.659L922.498 1117.61C955.854 1163.66 1020.5 1174.1 1066.85 1140.98C1113.22 1107.85 1123.76 1043.65 1090.4 997.609L948.331 801.54Z" stroke="#804DBD" stroke-width="0.2" stroke-miterlimit="10"/>
<path opacity="0.7545" d="M949.866 807.439L1418.54 412.891C1461.79 376.577 1467.73 312.941 1431.82 270.773C1395.93 228.609 1331.74 223.868 1288.51 260.195L833.577 643.17L701.313 456.355C669.331 411.176 606.522 400.304 561.045 432.066C515.557 463.836 504.606 526.199 536.582 571.369L679.336 773.022L199.458 1177C156.206 1213.33 150.258 1276.94 186.157 1319.11C222.071 1361.28 286.234 1366.02 329.474 1329.7L795.634 937.277L921.322 1114.8C953.286 1159.97 1016.1 1170.82 1061.57 1139.07C1107.06 1107.32 1118.01 1044.95 1086.04 999.778L949.866 807.439Z" stroke="#804DBD" stroke-width="0.2" stroke-miterlimit="10"/>
<path opacity="0.7273" d="M951.392 813.334L1411.76 434.805C1454.25 399.967 1460.76 338.132 1426.31 296.714C1391.87 255.298 1329.49 249.967 1287.02 284.817L840.144 652.248L713.61 469.044C683.015 424.742 622.044 413.459 577.442 443.846C532.836 474.238 521.474 534.775 552.069 579.072L688.634 776.824L217.257 1164.4C174.773 1199.26 168.262 1261.07 202.706 1302.49C237.162 1343.91 299.52 1349.23 341.991 1314.39L799.9 937.906L920.134 1111.99C950.718 1156.29 1011.69 1167.55 1056.29 1137.18C1100.89 1106.8 1112.25 1046.25 1081.66 1001.96L951.392 813.334Z" stroke="#804DBD" stroke-width="0.2" stroke-miterlimit="10"/>
<path opacity="0.7" d="M952.93 819.237L1404.99 456.725C1446.72 423.36 1453.78 363.33 1420.79 322.658C1387.81 281.989 1327.24 276.069 1285.54 309.439L846.713 661.325L725.916 481.735C696.708 438.307 637.571 426.615 593.85 455.63C550.125 484.645 538.351 543.355 567.563 586.781L697.942 780.629L235.065 1151.81C193.351 1185.19 186.278 1245.19 219.261 1285.87C252.257 1326.55 312.812 1332.46 354.517 1299.1L804.164 938.54L918.952 1109.19C948.151 1152.61 1007.29 1164.28 1051.01 1135.28C1094.73 1106.28 1106.5 1047.56 1077.29 1004.14L952.93 819.237Z" stroke="#804DBD" stroke-width="0.2" stroke-miterlimit="10"/>
<path opacity="0.6727" d="M954.463 825.135L1398.23 478.641C1439.18 446.753 1446.81 388.529 1415.27 348.604C1383.75 308.681 1324.98 302.172 1284.04 334.07L853.289 670.404L738.222 494.432C710.399 451.877 653.101 439.782 610.253 467.418C567.411 495.053 555.23 551.949 583.054 594.497L707.246 784.442L252.87 1139.22C211.924 1171.13 204.29 1229.33 235.814 1269.25C267.353 1309.18 326.106 1315.68 367.042 1283.8L808.428 939.17L917.775 1106.38C945.584 1148.94 1002.89 1161.01 1045.72 1133.39C1088.57 1105.77 1100.75 1048.86 1072.93 1006.31L954.463 825.135Z" stroke="#804DBD" stroke-width="0.2" stroke-miterlimit="10"/>
<path opacity="0.6455" d="M955.989 831.028L1391.45 500.553C1431.64 470.139 1439.83 413.714 1409.75 374.539C1379.69 335.366 1322.72 328.265 1282.56 358.688L859.854 679.478L750.521 507.122C724.083 465.44 668.623 452.935 626.661 479.199C584.694 505.455 572.1 560.528 598.54 602.199L716.549 788.242L270.675 1126.63C230.492 1157.05 222.299 1213.45 252.368 1252.63C282.446 1291.81 339.391 1298.9 379.565 1268.49L812.689 939.793L916.592 1103.57C943.014 1145.25 998.482 1157.73 1040.44 1131.48C1082.41 1105.24 1095 1050.15 1068.56 1008.49L955.989 831.028Z" stroke="#804DBD" stroke-width="0.2" stroke-miterlimit="10"/>
<path opacity="0.6182" d="M957.523 836.933L1384.68 522.468C1424.1 493.529 1432.85 438.909 1404.23 400.48C1375.63 362.057 1320.47 354.366 1281.07 383.311L866.428 688.552L762.824 519.807C737.772 479.002 684.151 466.088 643.069 490.969C601.981 515.853 588.98 569.102 614.028 609.902L725.852 792.045L288.479 1114.03C249.064 1142.98 240.309 1197.58 268.92 1236.01C297.541 1274.44 352.682 1282.13 392.082 1253.19L816.955 940.42L915.405 1100.77C940.449 1141.57 994.076 1154.46 1035.15 1129.59C1076.24 1104.72 1089.24 1051.47 1064.19 1010.67L957.523 836.933Z" stroke="#804DBD" stroke-width="0.2" stroke-miterlimit="10"/>
<path opacity="0.5909" d="M959.057 842.835L1377.92 544.385C1416.57 516.925 1425.87 464.11 1398.72 426.426C1371.57 388.749 1318.22 380.467 1279.58 407.938L872.997 697.631L775.123 532.503C751.458 492.571 699.673 479.249 659.475 502.758C619.264 526.266 605.856 577.684 629.519 617.614L735.156 795.852L306.28 1101.44C267.629 1128.92 258.32 1181.71 285.468 1219.39C312.632 1257.08 365.965 1265.35 404.604 1237.89L821.221 941.047L914.225 1097.96C937.885 1137.89 989.67 1151.19 1029.87 1127.69C1070.08 1104.19 1083.48 1052.77 1059.82 1012.85L959.057 842.835Z" stroke="#804DBD" stroke-width="0.2" stroke-miterlimit="10"/>
<path opacity="0.5636" d="M960.589 848.724L1371.14 566.297C1409.03 540.313 1418.9 489.295 1393.2 452.363C1367.51 415.435 1315.97 406.564 1278.09 432.558L879.573 706.703L787.432 545.192C765.149 506.132 715.203 492.407 675.882 514.537C636.556 536.664 622.734 586.265 645.015 625.317L744.465 799.657L324.09 1088.84C286.21 1114.84 276.334 1165.83 302.026 1202.77C327.726 1239.71 379.257 1248.57 417.13 1222.58L825.483 941.675L913.045 1095.15C935.308 1134.21 985.262 1147.91 1024.58 1125.79C1063.91 1103.67 1077.73 1054.07 1055.45 1015.02L960.589 848.724Z" stroke="#804DBD" stroke-width="0.2" stroke-miterlimit="10"/>
<path opacity="0.5364" d="M962.119 854.628L1364.38 588.211C1401.5 563.702 1411.92 514.49 1387.69 478.303C1363.45 442.125 1313.71 432.662 1276.61 457.181L886.144 715.782L799.734 557.879C778.835 519.699 730.73 505.564 692.288 526.315C653.843 547.074 639.611 594.844 660.5 633.02L753.765 803.463L341.893 1076.25C304.777 1100.77 294.343 1149.96 318.575 1186.15C342.818 1222.34 392.548 1231.79 429.649 1207.28L829.749 942.309L911.866 1092.35C932.748 1130.53 980.866 1144.64 1019.3 1123.9C1057.75 1103.16 1071.97 1055.37 1051.08 1017.21L962.119 854.628Z" stroke="#804DBD" stroke-width="0.2" stroke-miterlimit="10"/>
<path opacity="0.5091" d="M963.65 860.522L1357.6 610.126C1393.96 587.092 1404.95 539.683 1382.16 504.245C1359.4 468.816 1311.45 458.762 1275.12 481.807L892.713 724.858L812.036 570.572C792.528 533.262 746.255 518.719 708.692 538.096C671.126 557.476 656.484 603.421 675.992 640.727L763.069 807.266L359.7 1063.65C323.349 1086.7 312.357 1134.09 335.13 1169.53C357.914 1204.96 405.835 1215.01 442.173 1191.97L834.015 942.928L910.681 1089.53C930.179 1126.84 976.462 1141.36 1014.01 1121.99C1051.58 1102.63 1066.22 1056.67 1046.71 1019.37L963.65 860.522Z" stroke="#804DBD" stroke-width="0.2" stroke-miterlimit="10"/>
<path opacity="0.4818" d="M965.183 866.42L1350.83 632.042C1386.42 610.482 1397.97 564.876 1376.65 530.185C1355.33 495.503 1309.2 484.861 1273.63 506.43L899.287 733.934L824.337 583.259C806.212 546.824 761.778 531.874 725.098 549.878C688.409 567.882 673.355 612.004 691.482 648.437L772.374 811.07L377.504 1051.06C341.921 1072.64 330.368 1118.22 351.68 1152.91C373.007 1187.6 419.125 1198.23 454.692 1176.68L838.277 943.559L909.501 1086.74C927.611 1123.16 972.058 1138.09 1008.72 1120.1C1045.41 1102.11 1060.47 1057.98 1042.34 1021.55L965.183 866.42Z" stroke="#804DBD" stroke-width="0.2" stroke-miterlimit="10"/>
<path opacity="0.4545" d="M966.714 872.321L1344.06 653.958C1378.88 633.88 1391 590.074 1371.13 556.126C1351.28 522.194 1306.94 510.96 1272.14 531.049L905.854 743.008L836.642 595.95C819.904 560.384 777.301 545.029 741.499 561.659C705.692 578.287 690.234 620.585 706.972 656.142L781.674 814.879L395.308 1038.46C360.489 1058.56 348.379 1102.34 368.232 1136.29C388.1 1170.23 432.412 1181.46 467.216 1161.37L842.542 944.188L908.317 1083.93C925.046 1119.49 967.652 1134.82 1003.45 1118.21C1039.26 1101.59 1054.71 1059.28 1037.98 1023.73L966.714 872.321Z" stroke="#804DBD" stroke-width="0.2" stroke-miterlimit="10"/>
<path opacity="0.4273" d="M968.246 878.218L1337.3 675.872C1371.34 657.265 1384.02 615.266 1365.62 582.066C1347.22 548.879 1304.69 537.059 1270.66 555.677L912.433 752.089L848.948 608.641C833.596 573.956 792.833 558.191 757.911 573.437C722.984 588.692 707.112 629.165 722.461 663.848L790.979 818.685L413.113 1025.88C379.066 1044.49 366.395 1086.48 384.787 1119.67C403.198 1152.87 445.708 1164.68 479.74 1146.07L846.804 944.819L907.143 1081.12C922.479 1115.81 963.248 1131.55 998.164 1116.31C1033.09 1101.07 1048.96 1060.59 1033.61 1025.91L968.246 878.218Z" stroke="#804DBD" stroke-width="0.2" stroke-miterlimit="10"/>
<path opacity="0.4" d="M969.779 884.125L1330.52 697.789C1363.81 680.658 1377.04 640.46 1360.1 608.017C1343.17 575.575 1302.44 563.159 1269.17 580.305L919.003 761.164L861.253 621.334C847.287 587.521 808.362 571.35 774.319 585.225C740.274 599.103 723.994 637.753 737.96 671.558L800.294 822.493L430.916 1013.28C397.637 1030.42 384.403 1070.6 401.338 1103.05C418.289 1135.5 458.992 1147.9 492.262 1130.76L851.069 945.443L905.955 1078.31C919.912 1112.12 958.843 1128.27 992.88 1114.41C1026.92 1100.55 1043.2 1061.89 1029.24 1028.08L969.779 884.125Z" stroke="#804DBD" stroke-width="0.2" stroke-miterlimit="10"/>
<path opacity="0.3727" d="M971.312 890.02L1323.75 719.707C1356.26 704.051 1370.06 665.654 1354.58 633.954C1339.1 602.265 1300.19 589.263 1267.68 604.925L925.573 770.247L873.549 634.033C860.968 601.093 823.881 584.515 790.719 597.009C757.552 609.508 740.858 646.331 753.437 679.269L809.59 826.302L448.722 1000.69C416.206 1016.35 402.414 1054.73 417.892 1086.43C433.382 1118.13 472.281 1131.12 504.781 1115.46L855.332 946.071L904.774 1075.51C917.342 1108.44 954.439 1125 987.594 1112.52C1020.77 1100.03 1037.46 1063.2 1024.87 1030.26L971.312 890.02Z" stroke="#804DBD" stroke-width="0.2" stroke-miterlimit="10"/>
<path opacity="0.3455" d="M972.845 895.92L1316.98 741.619C1348.73 727.439 1363.09 690.845 1349.06 659.893C1335.04 628.953 1297.93 615.356 1266.19 629.545L932.14 779.32L885.85 646.716C874.654 614.657 839.412 597.666 807.118 608.785C774.84 619.908 757.737 654.91 768.929 686.971L818.892 830.101L466.526 988.088C434.778 1002.28 420.423 1038.86 434.441 1069.81C448.471 1100.76 485.569 1114.34 517.301 1100.16L859.596 946.703L903.587 1072.7C914.77 1104.77 950.023 1121.73 982.306 1110.62C1014.59 1099.51 1031.69 1064.51 1020.5 1032.45L972.845 895.92Z" stroke="#804DBD" stroke-width="0.2" stroke-miterlimit="10"/>
<path opacity="0.3182" d="M974.378 901.814L1310.21 763.533C1341.19 750.83 1356.11 716.04 1343.54 685.835C1330.98 655.635 1295.67 641.457 1264.71 654.172L938.708 788.394L898.15 659.411C888.344 628.22 854.929 610.827 823.527 620.565C792.121 630.308 774.609 663.492 784.413 694.678L828.195 833.909L484.329 975.493C453.346 988.21 438.431 1022.98 450.995 1053.19C463.567 1083.39 498.858 1097.56 529.825 1084.86L863.859 947.329L902.408 1069.9C912.203 1101.08 945.629 1118.46 977.022 1108.73C1008.43 1098.99 1025.94 1065.81 1016.13 1034.63L974.378 901.814Z" stroke="#804DBD" stroke-width="0.2" stroke-miterlimit="10"/>
<path opacity="0.2909" d="M975.913 907.717L1303.44 785.451C1333.65 774.226 1349.14 741.235 1338.02 711.778C1326.92 682.332 1293.42 667.56 1263.22 678.797L945.283 797.475L910.453 672.101C902.03 641.786 870.455 623.985 839.929 632.352C809.406 640.72 791.481 672.075 799.911 702.387L837.497 837.719L502.133 962.903C471.92 974.147 456.444 1007.12 467.547 1036.57C478.662 1066.03 512.146 1080.79 542.348 1069.55L868.128 947.955L901.231 1067.09C909.64 1097.4 941.224 1115.18 971.743 1106.82C1002.27 1098.47 1020.19 1067.11 1011.77 1036.79L975.913 907.717Z" stroke="#804DBD" stroke-width="0.2" stroke-miterlimit="10"/>
<path opacity="0.2636" d="M977.446 913.614L1296.67 807.363C1326.12 797.611 1342.16 766.427 1332.51 737.717C1322.86 709.019 1291.17 693.658 1261.73 703.416L951.855 806.546L922.765 684.785C915.725 655.343 885.989 637.134 856.345 644.125C826.697 651.118 808.363 680.648 815.401 710.092L846.803 841.52L519.939 950.3C490.492 960.067 474.458 991.234 484.103 1019.95C493.757 1048.66 525.44 1064.01 554.872 1054.25L872.394 948.582L900.051 1064.28C907.077 1093.72 936.825 1111.91 966.466 1104.93C996.116 1097.95 1014.44 1068.4 1007.4 1038.97L977.446 913.614Z" stroke="#804DBD" stroke-width="0.2" stroke-miterlimit="10"/>
<path opacity="0.2364" d="M978.972 919.514L1289.91 829.278C1318.58 821 1335.19 791.622 1326.99 763.663C1318.81 735.709 1288.92 719.759 1260.25 728.041L958.428 815.625L935.065 697.482C929.416 668.909 901.507 650.295 872.75 655.908C843.981 661.524 825.237 689.227 830.89 717.797L856.106 845.32L537.742 937.712C509.063 946 492.467 975.361 500.652 1003.32C508.851 1031.29 538.726 1047.23 567.39 1038.94L876.655 949.207L898.861 1061.47C904.501 1090.03 932.413 1108.64 961.171 1103.03C989.942 1097.42 1008.68 1069.71 1003.03 1041.15L978.972 919.514Z" stroke="#804DBD" stroke-width="0.2" stroke-miterlimit="10"/>
<path opacity="0.2091" d="M980.504 925.409L1283.13 851.193C1311.04 844.397 1328.21 816.814 1321.47 789.602C1314.75 762.398 1286.66 745.855 1258.76 752.665L965 824.7L947.366 710.167C943.1 682.474 917.039 663.449 889.153 667.684C861.263 671.926 842.115 697.808 846.38 725.501L865.412 849.123L555.546 925.118C527.634 931.924 510.479 959.495 517.201 986.711C523.937 1013.92 552.014 1030.45 579.909 1023.65L880.916 949.838L897.682 1058.67C901.937 1086.36 928.008 1105.37 955.89 1101.13C983.778 1096.91 1002.92 1071.02 998.661 1043.33L980.504 925.409Z" stroke="#804DBD" stroke-width="0.2" stroke-miterlimit="10"/>
<path opacity="0.1818" d="M982.038 931.311L1276.36 873.111C1303.5 867.789 1321.23 842.011 1315.96 815.542C1310.69 789.089 1284.41 771.956 1257.27 777.289L971.571 833.777L959.664 722.862C956.785 696.044 932.561 676.611 905.554 679.474C878.552 682.335 858.983 706.396 861.869 733.209L874.715 852.932L573.353 912.521C546.211 917.855 528.492 943.619 533.757 970.088C539.037 996.554 565.305 1013.67 592.436 1008.34L885.181 950.463L896.501 1055.86C899.367 1082.67 923.608 1102.09 950.603 1099.23C977.612 1096.38 997.173 1072.31 994.291 1045.5L982.038 931.311Z" stroke="#804DBD" stroke-width="0.2" stroke-miterlimit="10"/>
<path opacity="0.1545" d="M983.569 937.211L1269.59 895.028C1295.96 891.177 1314.25 867.205 1310.44 841.488C1306.63 815.782 1282.15 798.064 1255.78 801.922L978.142 842.858L971.971 735.556C970.475 709.613 948.09 689.771 921.961 691.257C895.831 692.744 875.862 714.977 877.352 740.922L884.013 856.745L591.151 899.936C564.775 903.793 546.497 927.755 550.305 953.476C554.124 979.19 578.59 996.896 604.953 993.043L889.442 951.095L895.316 1053.06C896.797 1079 919.201 1098.83 945.316 1097.34C971.448 1095.87 991.414 1073.62 989.922 1047.68L983.569 937.211Z" stroke="#804DBD" stroke-width="0.2" stroke-miterlimit="10"/>
<path opacity="0.1273" d="M985.104 943.111L1262.82 916.94C1288.42 914.569 1307.28 892.395 1304.92 867.426C1302.57 842.464 1279.9 824.154 1254.3 826.534L984.718 851.931L984.278 748.245C984.169 723.173 963.622 702.93 938.374 703.035C913.127 703.147 892.745 723.553 892.856 748.623L893.329 860.543L608.971 887.335C583.36 889.719 564.52 911.877 566.869 936.851C569.231 961.822 591.893 980.118 617.488 977.739L893.719 951.723L894.143 1050.25C894.241 1075.32 914.804 1095.55 940.045 1095.44C965.291 1095.35 985.671 1074.93 985.562 1049.86L985.104 943.111Z" stroke="#804DBD" stroke-width="0.2" stroke-miterlimit="10"/>
<path opacity="0.1" d="M986.629 949.004L1256.05 938.857C1280.89 937.96 1300.3 917.588 1299.4 893.367C1298.51 869.158 1277.64 850.255 1252.81 851.159L991.286 861.008L996.577 760.933C997.859 736.738 979.141 716.08 954.773 714.817C930.41 713.553 909.617 732.138 908.339 756.33L902.625 864.353L626.765 874.742C601.921 875.646 582.525 896.007 583.417 920.229C584.315 944.452 605.173 963.342 630.003 962.436L897.975 952.349L892.95 1047.44C891.665 1071.64 910.394 1092.28 934.749 1093.55C959.116 1094.83 979.911 1076.23 981.185 1052.04L986.629 949.004Z" stroke="#804DBD" stroke-width="0.2" stroke-miterlimit="10"/>
</g>
</svg>
